<svg id="visual" viewBox="0 0 1280 720" width="1280" height="720" xmlns="http://www.w3.org/2000/svg" xmlns:xlink="http://www.w3.org/1999/xlink" version="1.1"><path d="M0 87L19.3 101.5C38.7 116 77.3 145 116.2 147.5C155 150 194 126 232.8 115.2C271.7 104.3 310.3 106.7 349 103C387.7 99.3 426.3 89.7 465.2 95.7C504 101.7 543 123.3 581.8 122.2C620.7 121 659.3 97 698.2 88.7C737 80.3 776 87.7 814.8 91.3C853.7 95 892.3 95 931 90.2C969.7 85.3 1008.3 75.7 1047.2 81.7C1086 87.7 1125 109.3 1163.8 118.8C1202.7 128.3 1241.3 125.7 1260.7 124.3L1280 123L1280 0L1260.7 0C1241.3 0 1202.7 0 1163.8 0C1125 0 1086 0 1047.2 0C1008.3 0 969.7 0 931 0C892.3 0 853.7 0 814.8 0C776 0 737 0 698.2 0C659.3 0 620.7 0 581.8 0C543 0 504 0 465.2 0C426.3 0 387.7 0 349 0C310.3 0 271.7 0 232.8 0C194 0 155 0 116.2 0C77.3 0 38.7 0 19.3 0L0 0Z" fill="#ffffff"></path><path d="M0 210L19.3 212.3C38.7 214.7 77.3 219.3 116.2 218.2C155 217 194 210 232.8 205.2C271.7 200.3 310.3 197.7 349 191.7C387.7 185.7 426.3 176.3 465.2 178.8C504 181.3 543 195.7 581.8 195.7C620.7 195.7 659.3 181.3 698.2 181.3C737 181.3 776 195.7 814.8 196.8C853.7 198 892.3 186 931 175.2C969.7 164.3 1008.3 154.7 1047.2 167.8C1086 181 1125 217 1163.8 232.7C1202.7 248.3 1241.3 243.7 1260.7 241.3L1280 239L1280 121L1260.7 122.3C1241.3 123.7 1202.7 126.3 1163.8 116.8C1125 107.3 1086 85.7 1047.2 79.7C1008.3 73.7 969.7 83.3 931 88.2C892.3 93 853.7 93 814.8 89.3C776 85.7 737 78.3 698.2 86.7C659.3 95 620.7 119 581.8 120.2C543 121.3 504 99.7 465.2 93.7C426.3 87.7 387.7 97.3 349 101C310.3 104.7 271.7 102.3 232.8 113.2C194 124 155 148 116.2 145.5C77.3 143 38.7 114 19.3 99.5L0 85Z" fill="#a4dadc"></path><path d="M0 303L19.3 300.7C38.7 298.3 77.3 293.7 116.2 293.7C155 293.7 194 298.3 232.8 304.3C271.7 310.3 310.3 317.7 349 320.2C387.7 322.7 426.3 320.3 465.2 324C504 327.7 543 337.3 581.8 321.7C620.7 306 659.3 265 698.2 253C737 241 776 258 814.8 261.7C853.7 265.3 892.3 255.7 931 259.2C969.7 262.7 1008.3 279.3 1047.2 287.7C1086 296 1125 296 1163.8 308C1202.7 320 1241.3 344 1260.7 356L1280 368L1280 237L1260.7 239.3C1241.3 241.7 1202.7 246.3 1163.8 230.7C1125 215 1086 179 1047.2 165.8C1008.3 152.7 969.7 162.3 931 173.2C892.3 184 853.7 196 814.8 194.8C776 193.7 737 179.3 698.2 179.3C659.3 179.3 620.7 193.7 581.8 193.7C543 193.7 504 179.3 465.2 176.8C426.3 174.3 387.7 183.7 349 189.7C310.3 195.7 271.7 198.3 232.8 203.2C194 208 155 215 116.2 216.2C77.3 217.3 38.7 212.7 19.3 210.3L0 208Z" fill="#65c3c8"></path><path d="M0 498L19.3 496.8C38.7 495.7 77.3 493.3 116.2 500.5C155 507.7 194 524.3 232.8 539.8C271.7 555.3 310.3 569.7 349 561.3C387.7 553 426.3 522 465.2 512.5C504 503 543 515 581.8 504.2C620.7 493.3 659.3 459.7 698.2 447.7C737 435.7 776 445.3 814.8 438.2C853.7 431 892.3 407 931 401C969.7 395 1008.3 407 1047.2 438.2C1086 469.3 1125 519.7 1163.8 528C1202.7 536.3 1241.3 502.7 1260.7 485.8L1280 469L1280 366L1260.7 354C1241.3 342 1202.7 318 1163.8 306C1125 294 1086 294 1047.2 285.7C1008.3 277.3 969.7 260.7 931 257.2C892.3 253.7 853.7 263.3 814.8 259.7C776 256 737 239 698.2 251C659.3 263 620.7 304 581.8 319.7C543 335.3 504 325.7 465.2 322C426.3 318.3 387.7 320.7 349 318.2C310.3 315.7 271.7 308.3 232.8 302.3C194 296.3 155 291.7 116.2 291.7C77.3 291.7 38.7 296.3 19.3 298.7L0 301Z" fill="#a4dadc"></path><path d="M0 721L19.3 721C38.7 721 77.3 721 116.2 721C155 721 194 721 232.8 721C271.7 721 310.3 721 349 721C387.7 721 426.3 721 465.2 721C504 721 543 721 581.8 721C620.7 721 659.3 721 698.2 721C737 721 776 721 814.8 721C853.7 721 892.3 721 931 721C969.7 721 1008.3 721 1047.2 721C1086 721 1125 721 1163.8 721C1202.7 721 1241.3 721 1260.7 721L1280 721L1280 467L1260.7 483.8C1241.3 500.7 1202.7 534.3 1163.8 526C1125 517.7 1086 467.3 1047.2 436.2C1008.3 405 969.7 393 931 399C892.3 405 853.7 429 814.8 436.2C776 443.3 737 433.7 698.2 445.7C659.3 457.7 620.7 491.3 581.8 502.2C543 513 504 501 465.2 510.5C426.3 520 387.7 551 349 559.3C310.3 567.7 271.7 553.3 232.8 537.8C194 522.3 155 505.7 116.2 498.5C77.3 491.3 38.7 493.7 19.3 494.8L0 496Z" fill="#ffffff"></path></svg>