<svg width="2000" height="1400" xmlns="http://www.w3.org/2000/svg"><defs><linearGradient id="a" gradientTransform="rotate(90)"><stop offset="5%" stop-color="#65c3c8"/><stop offset="95%" stop-color="#8bd2d5"/></linearGradient><linearGradient id="b" gradientTransform="rotate(90)"><stop offset="5%" stop-color="#63b1c7"/><stop offset="95%" stop-color="#8ac4d5"/></linearGradient><linearGradient id="c" gradientTransform="rotate(90)"><stop offset="5%" stop-color="#fff"/><stop offset="95%" stop-color="#fff"/></linearGradient></defs><path fill="#fff" d="M0 0h2000v1400H0z"/><path d="M0 350c114.443 41.216 228.887 82.432 320 50s158.896-138.513 251-146c92.104-7.487 208.528 83.618 311 98 102.472 14.382 190.993-47.96 271-50 80.007-2.04 151.502 56.22 246 93 94.498 36.78 212 52.08 316 41 104-11.08 194.5-48.54 325-86l-40 1050H0Z" fill="url(#a)"/><path d="M0 700c102.728-22.41 205.456-44.82 290-49 84.544-4.18 150.905 9.871 239 21s197.923 19.336 296 55 184.402 98.786 281 62c96.598-36.786 203.469-173.48 308-172 104.531 1.48 206.723 141.137 304 178 97.277 36.863 189.638-29.069 322-95l-40 700H0Z" fill="url(#b)"/><path d="M0 1050c85.566-27.098 171.132-54.196 263-50 91.868 4.196 190.038 39.685 295 39 104.962-.685 216.716-37.546 305-12 88.284 25.546 153.097 113.497 254 110 100.903-3.497 237.897-98.441 332-117 94.103-18.559 145.315 39.269 230 57s202.842-4.634 361-27l-40 350H0Z" fill="url(#c)"/></svg>