<svg width="100%" height="100%" id="svg" viewBox="0 0 1440 690" xmlns="http://www.w3.org/2000/svg" class="transition duration-300 ease-in-out delay-150"><path d="M 0,700 C 0,700 0,175 0,175 C 102.07692307692307,160.06923076923078 204.15384615384613,145.13846153846154 284,138 C 363.84615384615387,130.86153846153846 421.46153846153857,131.51538461538462 497,131 C 572.5384615384614,130.48461538461538 666.0000000000001,128.8 756,148 C 845.9999999999999,167.2 932.5384615384614,207.2846153846154 1002,206 C 1071.4615384615386,204.7153846153846 1123.846153846154,162.06153846153845 1194,150 C 1264.153846153846,137.93846153846155 1352.0769230769229,156.46923076923076 1440,175 C 1440,175 1440,700 1440,700 Z" stroke="none" stroke-width="0" fill="#8ed1fc" fill-opacity="0.4" class="transition-all duration-300 ease-in-out delay-150 path-0"></path><path d="M 0,700 C 0,700 0,350 0,350 C 66.23846153846154,376.63076923076926 132.47692307692307,403.26153846153846 211,386 C 289.5230769230769,368.73846153846154 380.3307692307693,307.58461538461535 472,312 C 563.6692307692307,316.41538461538465 656.1999999999999,386.40000000000003 737,388 C 817.8000000000001,389.59999999999997 886.8692307692307,322.8153846153846 954,294 C 1021.1307692307693,265.1846153846154 1086.323076923077,274.33846153846156 1167,290 C 1247.676923076923,305.66153846153844 1343.8384615384616,327.8307692307692 1440,350 C 1440,350 1440,700 1440,700 Z" stroke="none" stroke-width="0" fill="#8ed1fc" fill-opacity="0.53" class="transition-all duration-300 ease-in-out delay-150 path-1"></path><path d="M 0,700 C 0,700 0,525 0,525 C 91.10512820512821,539.1153846153846 182.21025641025642,553.2307692307693 271,531 C 359.7897435897436,508.7692307692308 446.2641025641026,450.19230769230774 517,459 C 587.7358974358974,467.80769230769226 642.7333333333335,544 719,553 C 795.2666666666665,562 892.802564102564,503.80769230769226 986,485 C 1079.197435897436,466.19230769230774 1168.0564102564101,486.76923076923083 1243,500 C 1317.9435897435899,513.2307692307692 1378.9717948717948,519.1153846153845 1440,525 C 1440,525 1440,700 1440,700 Z" stroke="none" stroke-width="0" fill="#8ed1fc" fill-opacity="1" class="transition-all duration-300 ease-in-out delay-150 path-2"></path></svg>